<svg width="500" height="500" version="1.1" xmlns="http://www.w3.org/2000/svg">
    <rect x="0" y="0" width="500" height="500" stroke="black" fill="transparent" stroke-width="5"/>
    <ellipse cx="245" cy="260" rx="210" ry="210" fill="#FFC300 "/>
    <circle cx ="250" cy="250" r="210" fill="#ff8204" />

    <rect x="110" y="170" width="290" height="130" fill="black" />
    <rect x="110" y="310" width="290" height="50" fill="black" />

    <rect x="60" y="205" width="20" height="40" fill="black" />
    <rect x="85" y="219" width="20" height="20" fill="black" />

    <rect x="440" y="205" width="20" height="40" fill="black" />
    <rect x="410" y="219" width="20" height="20" fill="black" />

    <circle cx="250" cy="139" r="18" fill="black" />
    <circle cx="202" cy="101" r="18" fill="black" />
    <circle cx="285" cy="100" r="18" fill="black" />
    <circle cx="293" cy="57" r="18" fill="black" />

    <polyline points="250 170 250 139 202 101"
stroke="black" fill="transparent" stroke-width="12"/>
    <polyline points="250 139 285 100 293 57"
stroke="black" fill="transparent" stroke-width="11"/>
</svg>
